<?xml version="1.0" encoding="UTF-8" standalone="no"?>
<!-- Created with Inkscape (http://www.inkscape.org/) -->

<svg
   xmlns:dc="http://purl.org/dc/elements/1.1/"
   xmlns:cc="http://creativecommons.org/ns#"
   xmlns:rdf="http://www.w3.org/1999/02/22-rdf-syntax-ns#"
   xmlns:svg="http://www.w3.org/2000/svg"
   xmlns="http://www.w3.org/2000/svg"
   xmlns:sodipodi="http://sodipodi.sourceforge.net/DTD/sodipodi-0.dtd"
   xmlns:inkscape="http://www.inkscape.org/namespaces/inkscape"
   width="703.28998"
   height="367.58987"
   id="svg3244"
   version="1.1"
   inkscape:version="0.48.2 r9819"
   sodipodi:docname="asaim_logo.pdf"
   inkscape:export-filename="/Users/bbatut/Dropbox/Apres_these/Post_doc/ASaiM/Pipeline/asaim_logo.png"
   inkscape:export-xdpi="90"
   inkscape:export-ydpi="90">
  <defs
     id="defs3246" />
  <sodipodi:namedview
     id="base"
     pagecolor="#ffffff"
     bordercolor="#666666"
     borderopacity="1.0"
     inkscape:pageopacity="0"
     inkscape:pageshadow="2"
     inkscape:zoom="0.49497475"
     inkscape:cx="310.85359"
     inkscape:cy="28.879473"
     inkscape:document-units="px"
     inkscape:current-layer="layer1"
     showgrid="false"
     fit-margin-top="5"
     fit-margin-right="5"
     fit-margin-bottom="5"
     fit-margin-left="5"
     inkscape:window-width="1440"
     inkscape:window-height="768"
     inkscape:window-x="0"
     inkscape:window-y="0"
     inkscape:window-maximized="1" />
  <metadata
     id="metadata3249">
    <rdf:RDF>
      <cc:Work
         rdf:about="">
        <dc:format>image/svg+xml</dc:format>
        <dc:type
           rdf:resource="http://purl.org/dc/dcmitype/StillImage" />
        <dc:title></dc:title>
      </cc:Work>
    </rdf:RDF>
  </metadata>
  <g
     inkscape:label="Layer 1"
     inkscape:groupmode="layer"
     id="layer1"
     transform="translate(179.4034,-193.29276)">
    <path
       d="m 251.55219,253.56794 c -25.80378,6.82448 -55.46657,10.02587 -86.37617,8.44512 -25.27839,-1.30837 -51.47308,-4.1576 -73.594515,-11.30347 -5.12406,-1.64686 -11.09491,-3.66411 -16.64635,-6.11673 -8.50781,8.93975 -18.16328,18.26129 -28.97669,28.02504 -11.5485,10.35525 -24.33927,21.22222 -38.4566501,32.48124 -15.0599,11.97589 -31.6344499,24.46351 -49.6427299,37.33861 -19.25511,13.76521 -40.16163,27.91792 -62.617005,42.40911 -20.67402,13.29338 -44.75003,23.70561 -67.36609,29.83146 22.66506,-16.00015 43.18865,-31.04295 61.67675,-45.06231 17.393995,-13.17713 33.086415,-25.48695 47.145665,-36.93289 25.85735,-21.00453 46.76843,-39.32395 63.34639992,-54.77705 C 14.727465,264.26623 26.392225,252.61059 35.486975,242.98589 c 5.81471,-6.0814 10.30168,-11.10745 14.22792,-15.64 3.59801,-3.83735 6.41077,-6.04151 10.72109,-6.31732 l 40.543425,-1.20124 c -0.83312,0.96532 -1.277595,1.97167 -1.371045,3.03159 -0.3875,9.79794 35.966415,17.29483 81.238425,15.97735 45.28911,-1.35282 76.35941,-10.86697 69.85519,-20.46546 -4.65679,-6.95783 -27.62387,-12.19358 -56.36578,-13.16915 -27.91792,0.4365 -38.03725,3.47264 -41.95893,5.4899 -12.01122,6.25007 39.86645,10.084 39.86645,10.084 0,0 -7.89807,7.62112 -57.40746,-3.45555 -17.90115,-5.56854 -10.61396,-9.49592 -2.88001,-11.68185 1.9409,-0.27581 2.87089,-0.70319 5.4352,-0.92087 16.10272,-2.5153 49.1048,-6.64669 90.90417,-2.12781 8.40523,0.67128 17.06006,1.86454 25.41629,3.7211 10.45212,2.26229 35.65528,8.30266 36.70608,18.12795 1.5534,15.06104 -19.37022,24.00079 -38.86124,29.12941"
       style="fill:#2e3195;fill-opacity:1;fill-rule:nonzero;stroke:#2e3192;stroke-width:4.55877066;stroke-linecap:butt;stroke-linejoin:miter;stroke-miterlimit:4;stroke-opacity:1;stroke-dasharray:none"
       id="path16"
       inkscape:connector-curvature="0" />
    <path
       d="m 264.47925,258.01966 c 0.41523,68.16267 7.01454,122.36211 27.19338,202.30083 -10.19015,-83.14818 -17.15443,-118.52347 -9.84826,-211.32583 -5.22234,4.18936 -15.10754,8.34538 -17.34512,9.025 z"
       style="fill:#2e3195;fill-opacity:1;fill-rule:nonzero;stroke:#2e3192;stroke-width:4.55877066;stroke-linecap:butt;stroke-linejoin:miter;stroke-miterlimit:4;stroke-opacity:1;stroke-dasharray:none"
       id="path20"
       inkscape:connector-curvature="0"
       sodipodi:nodetypes="cccc" />
    <path
       d="m -22.666842,340.97429 c 10.089267,-8.62924 13.3684598,-8.91368 24.1820496,-19.7894 C 45.896704,354.49338 117.62376,370.2801 262.12468,350.4227 178.89914,380.82784 23.400687,361.33559 -22.666842,340.97429 z"
       style="fill:#2e3195;fill-opacity:1;fill-rule:nonzero;stroke:#2e3192;stroke-width:4.55877066;stroke-linecap:butt;stroke-linejoin:miter;stroke-miterlimit:4;stroke-opacity:1;stroke-dasharray:none"
       id="path24"
       inkscape:connector-curvature="0"
       sodipodi:nodetypes="cccc" />
    <path
       style="fill:#2e3195;fill-opacity:1;stroke:#2e3192;stroke-width:8.59685898;stroke-linecap:butt;stroke-linejoin:miter;stroke-miterlimit:4;stroke-opacity:1;stroke-dasharray:none"
       d="m 284.07445,507.0684 c 0.88813,-19.09149 -11.18883,-28.63976 -23.53887,-32.32335 -15.84071,-5.17596 -35.29984,0.42135 -48.64785,-10.56575 -16.10001,-13.21937 0.21436,-33.21954 19.95213,-32.40005 17.00675,0.4431 37.24829,14.02364 37.24829,14.02364 0,0 -6.30544,-20.23385 -38.10101,-23.05778 -26.72826,-1.29592 -40.72196,15.27843 -41.20832,28.04529 -0.13343,14.9828 10.41715,30.79648 45.15942,34.44731 17.03146,1.63456 40.99956,5.60605 34.82461,33.43754 -5.84235,14.82897 -25.97875,22.26767 -38.15817,21.33526 -27.13036,0.47618 -41.32706,-21.1391 -42.17477,-22.74791 0,0 5.464,14.26814 20.37708,22.87156 22.62661,13.14186 73.36074,1.4581 74.26746,-33.06576 z"
       id="path32"
       inkscape:connector-curvature="0"
       sodipodi:nodetypes="ccccccccccccc" />
    <path
       sodipodi:nodetypes="cccccccccccccccccc"
       d="m 362.72673,525.41761 c -8.2438,-22.62788 -20.43131,-50.08246 -31.52203,-72.47869 -2.08767,0 -4.94944,0 -6.69659,-0.1079 -12.18851,24.48391 -21.85478,46.7881 -32.17141,72.58659 -1.54101,4.59977 2.54709,6.18238 6.03239,7.03711 2.86078,-7.91911 5.59881,-14.94039 8.89316,-22.73577 12.52804,-2.96967 27.02101,-3.51113 40.09052,-2.86177 3.40224,8.46058 7.02227,18.12685 9.43463,25.36591 3.10596,-1.13016 7.14323,-3.53625 5.93933,-6.80548 z m -18.56041,-26.03112 c -10.54827,-0.32468 -22.62788,0.23263 -33.39293,1.97977 4.73266,-11.52329 10.87295,-25.04121 16.92117,-37.6623 5.48992,10.76504 11.97072,25.04122 16.47176,35.68253 z m 40.35381,32.51192 0,-78.74271 c -2.08866,0 -6.58871,-0.1079 -8.35269,-0.1079 0,18.99301 0.1089,59.51709 0.1089,78.9585 1.97977,0 5.93932,-0.10789 8.24379,-0.10789 z"
       style="fill:#2e3192;fill-opacity:1;stroke:#2e3192;stroke-width:7.46686983;stroke-linecap:butt;stroke-linejoin:miter;stroke-miterlimit:4;stroke-opacity:1;stroke-dasharray:none"
       id="path40"
       inkscape:connector-curvature="0" />
    <path
       d="m 514.58715,539.79487 c -0.1607,-40.40552 -2.92104,-74.61454 -6.6957,-115.19785 -3.27662,0 -9.29533,-0.1607 -12.03857,-0.1607 -14.95847,33.87053 -29.22172,69.2899 -40.58332,102.98263 -9.79452,-32.83796 -25.26927,-71.69351 -39.19517,-102.82193 -3.95246,0.17779 -10.30966,0.17779 -13.58628,0.17779 -3.59801,37.48563 -6.17941,77.89116 -6.35834,114.16529 0,3.25839 1.0337,5.32465 2.76033,6.6957 2.40475,1.72777 5.84093,2.42185 9.61673,2.58254 -0.33849,-29.56135 1.72663,-67.22477 4.46987,-100.0616 13.24893,31.98206 42.64958,103.42748 42.64958,103.42748 0,0 29.12492,-74.01101 42.47065,-101.18342 3.25952,28.36695 4.29208,65.49586 4.11429,98.33382 3.7929,-0.33848 7.05128,-1.19325 9.81162,-3.25838 1.70954,-1.21149 2.56431,-2.92103 2.56431,-5.68137 z"
       style="fill:#2e3195;fill-opacity:1;stroke:#2e3192;stroke-width:8.59685898;stroke-linecap:butt;stroke-linejoin:miter;stroke-miterlimit:4;stroke-opacity:1;stroke-dasharray:none"
       id="path48"
       inkscape:connector-curvature="0"
       sodipodi:nodetypes="ccccccccccccccc" />
  </g>
</svg>
